<svg xmlns="http://www.w3.org/2000/svg">
<symbol id="floppy-disk" viewBox="0 0 28 28">
<path fill="currentColor" d="M1 0h2v2H1zm0 2h2v2H1zm0 2h2v2H1zM1 6h2v3H1zm0 3h2v2H1zm0 2h2v2H1zm0 2h2v2H1zm0 2h2v2H1zm0 2h2v2H1zm0 2h2v3H1zm0 3h2v2H1zM1 24h2v2H1zm0 2h2v2H1zM24 0v2h-2V0zM22 0v2h-2V0zm-2 0v2h-2V0zm-2 0v2h-2V0zM16 0v2h-3V0zm-3 0v2h-2V0zm-2 0v2H9V0zM9 0v2H7V0zM7 0v2H5V0zM5 0v2H3V0zm21 2v2h-2V2zM7 4v2H5V4zm0-2v2H5V2zM7 6v3H5V6zm15-2v2h-2V4zm0-2v2h-2V2zM22 6v3h-2V6zm-4-2v2h-2V4zm0-2v2h-2V2zM18 6v3h-2V6zm4 3v2h-2V9zm-2 0v2h-2V9zm-2 0v2h-2V9zm-2 0v2h-3V9zm-3 0v2h-2V9zm-2 0v2H9V9zM9 9v2H7V9zM7 9v2H5V9zm17 6v2h-2v-2zM22 15v2h-2v-2zm-2 0v2h-2v-2zm-2 0v2h-2v-2zM16 15v2h-3v-2zM13 15v2h-2v-2zM11 15v2H9v-2zM9 15v2H7v-2zm-2 0v2H5v-2zm17 2v2h-2v-2zM7 17v2H5v-2zm17 2v3h-2v-3zM7 19v3H5v-3zm17 3v2h-2v-2zM7 22v2H5v-2zM7 24v2H5v-2zm17 0v2h-2v-2zm2 2v2h-2v-2zM24 26v2h-2v-2zM22 26v2h-2v-2zm-2 0v2h-2v-2zm-2 0v2h-2v-2zm-2 0v2h-3v-2zm-3 0v2h-2v-2zm-2 0v2H9v-2zm-2 0v2H7v-2zm-2 0v2H5v-2zm-2 0v2H3v-2zm24 2h-3v-2h3zm0-2h-3v-2h3zM29 24h-3v-2h3zm0-2h-3v-3h3zM29 19h-3v-2h3zM29 17h-3v-2h3zm0-2h-3v-2h3zM29 13h-3v-2h3zm0-2h-3V9h3zm0-2h-3V6h3zM29 6h-3V4h3z"/>
</symbol></svg>